<svg width="963.1879" height="757.68268" xmlns="http://www.w3.org/2000/svg">
    <title>feeling_proud</title>

    <!--    <rect x="365.82336" y="130.42445" width="249.99557" height="139.87094" fill="#f2f2f2"/>-->
    <g>
        <title>Layer 1</title>
        <path stroke="null" id="svg_1" opacity="0.1" fill="#2caeba" transform="translate(-365.23 -120.18) scale(1.2 1.2)" d="m743.67024,226.48192c-52.89784,10.80057 -97.10014,6.17175 -134.7808,0s-82.60759,-40.88787 -107.96956,-59.40314c-28.26049,-13.11498 -63.11509,-6.85837 -86.83217,9.94424c-22.83302,16.20085 -30.20974,44.08947 -34.17345,69.99541c-2.98547,19.48731 -4.73906,40.00068 3.43474,58.23822c5.68109,12.66753 15.75341,23.3138 22.72433,35.44902c24.2533,42.2148 7.1086,94.27355 -19.16641,135.49315c-12.31867,19.34073 -26.63007,37.80199 -36.14444,58.36936s-13.91285,44.16662 -5.58688,65.16601c8.24626,20.82967 27.90542,36.44421 49.20223,47.43765c43.25304,22.33403 94.20163,28.7218 143.91835,32.33999c110.02026,8.01557 220.62022,4.54395 330.93033,1.07234c40.82554,-1.28836 81.82499,-2.59214 121.98387,-9.31163c22.30404,-3.73391 45.32548,-9.65108 61.52091,-23.95412c20.55045,-18.15267 25.64459,-48.88801 11.86941,-71.65406c-23.10114,-38.18002 -86.95535,-47.66137 -103.1218,-88.6341c-8.88394,-22.55776 0.23913,-47.6768 13.15924,-68.59905c27.70977,-44.86866 74.15118,-84.23673 76.59317,-135.52401c1.68114,-35.22529 -20.64465,-70.50458 -55.16592,-87.17603c-36.18067,-17.46606 -86.36115,-15.27509 -138.62857,3.74934c-25.65907,5.17656 -73.96278,16.63288 -111.5927,26.22995l-2.17388,0.77147l-0.00001,0z"/>
        <polygon id="svg_2" fill="#e6e6e6" points="671.3259887695312,438.68467712402344 671.3259887695312,623.6796722412109 702.2698974609375,674.1096649169922 704.6248779296875,677.9456634521484 826.7218627929688,677.9456634521484 829.1889038085938,438.68467712402344 671.3259887695312,438.68467712402344 "/>
        <polygon id="svg_3" opacity="0.1" points="672.3259887695312,438.68467712402344 672.3259887695312,623.6796722412109 703.2698974609375,674.1096649169922 705.1690063476562,438.68467712402344 672.3259887695312,438.68467712402344 "/>
        <polygon id="svg_4" fill="#e6e6e6" points="377.5659484863281,433.7506561279297 377.5659484863281,618.7466888427734 346.6219177246094,669.1766815185547 344.2669372558594,673.0116424560547 222.169921875,673.0116424560547 219.70291137695312,433.7506561279297 377.5659484863281,433.7506561279297 "/>
        <polygon id="svg_5" opacity="0.1" points="377.5659484863281,433.7506561279297 377.5659484863281,618.7466888427734 346.6219177246094,669.1766815185547 344.7229309082031,433.7506561279297 377.5659484863281,433.7506561279297 "/>
        <polygon id="svg_6" fill="#e6e6e6" points="867.1878662109375,430.0516815185547 867.1878662109375,441.1506805419922 203.669921875,441.1506805419922 203.669921875,425.11766052246094 265.3349304199219,393.0516815185547 812.9228515625,393.0516815185547 867.1878662109375,430.0516815185547 "/>
        <polygon id="svg_7" opacity="0.1" points="867.1878662109375,430.0516815185547 867.1878662109375,441.1506805419922 203.669921875,441.1506805419922 203.669921875,425.11766052246094 867.1878662109375,430.0516815185547 "/>
        <polygon id="svg_8" fill="#3f3d56" points="298.6349182128906,485.54966735839844 269.0349426269531,485.54966735839844 256.7019348144531,476.9166717529297 312.2009582519531,476.9166717529297 298.6349182128906,485.54966735839844 "/>
        <polygon id="svg_9" fill="#3f3d56" points="298.6349182128906,521.3156585693359 269.0349426269531,521.3156585693359 256.7019348144531,512.6826629638672 312.2009582519531,512.6826629638672 298.6349182128906,521.3156585693359 "/>
        <polygon id="svg_10" fill="#3f3d56" points="298.6349182128906,571.8816986083984 269.0349426269531,571.8816986083984 256.7019348144531,563.2476654052734 312.2009582519531,563.2476654052734 298.6349182128906,571.8816986083984 "/>
        <polygon id="svg_11" fill="#3f3d56" points="298.6349182128906,622.4467010498047 269.0349426269531,622.4467010498047 256.7019348144531,613.8136444091797 312.2009582519531,613.8136444091797 298.6349182128906,622.4467010498047 "/>
        <polygon id="svg_12" fill="#3f3d56" points="751.2569580078125,490.48265075683594 780.8570556640625,490.48265075683594 793.1900024414062,481.8496551513672 737.69091796875,481.8496551513672 751.2569580078125,490.48265075683594 "/>
        <polygon id="svg_13" fill="#3f3d56" points="751.2569580078125,526.2486419677734 780.8570556640625,526.2486419677734 793.1900024414062,517.6156463623047 737.69091796875,517.6156463623047 751.2569580078125,526.2486419677734 "/>
        <polygon id="svg_14" fill="#3f3d56" points="751.2569580078125,576.8146820068359 780.8570556640625,576.8146820068359 793.1900024414062,568.1816864013672 737.69091796875,568.1816864013672 751.2569580078125,576.8146820068359 "/>
        <polygon id="svg_15" fill="#3f3d56" points="751.2569580078125,627.3796844482422 780.8570556640625,627.3796844482422 793.1900024414062,618.7466888427734 737.69091796875,618.7466888427734 751.2569580078125,627.3796844482422 "/>
        <path id="svg_16" fill="#3f3d56" d="m774.08044,177.78963l-249.18543,0a9.4227,9.4227 0 0 0 -9.42389,9.42389l0,167.85773a9.4227,9.4227 0 0 0 9.42389,9.42388l94.5929,0l-3.54389,22.62623s-20.25281,10.75927 -6.01251,11.07574s81.32764,0 81.32764,0s12.97448,0 -7.59479,-11.39221l-3.33362,-22.30976l93.7497,0a9.42266,9.42266 0 0 0 9.42388,-9.42388l0,-167.85773a9.42266,9.42266 0 0 0 -9.42388,-9.42389z"/>
        <circle id="svg_17" fill="#f2f2f2" r="1.58225" cy="184.66084" cx="646.82107"/>
        <circle id="svg_18" fill="#f2f2f2" r="6.01255" cy="353.01228" cx="646.82107"/>
        <polygon id="svg_19" fill="#3f3d56" points="637.451904296875,416.61863708496094 637.451904296875,419.78367614746094 467.2019348144531,419.78367614746094 467.2019348144531,417.2516326904297 467.4359436035156,416.61863708496094 471.6319274902344,405.22666931152344 633.970947265625,405.22666931152344 637.451904296875,416.61863708496094 "/>
        <path id="svg_20" fill="#3f3d56" d="m702.96946,413.52069c-0.31011,1.3259 -1.481,2.72467 -4.1265,4.04741c-9.4935,4.74675 -28.797,-1.2658 -28.797,-1.2658s-14.87315,-2.53161 -14.87315,-9.17706a11.86592,11.86592 0 0 1 1.30377,-0.77528c3.99133,-2.11163 17.2253,-7.32222 40.69051,0.22062a9.78618,9.78618 0 0 1 4.46035,2.923a4.667,4.667 0 0 1 1.34202,4.02711z"/>
        <path id="svg_21" opacity="0.1" d="m702.96946,413.52069c-11.62,4.45247 -21.97744,4.78472 -32.607,-2.59805a23.34328,23.34328 0 0 0 -13.88583,-4.57268c3.99133,-2.11163 17.2253,-7.32222 40.69051,0.22062a9.78618,9.78618 0 0 1 4.46035,2.923a4.667,4.667 0 0 1 1.34197,4.02711z"/>
        <ellipse id="svg_22" fill="#f2f2f2" ry="1.2658" rx="4.11385" cy="409.65685" cx="688.4001"/>
        <polygon id="svg_23" opacity="0.1" points="637.451904296875,416.61863708496094 637.451904296875,419.78367614746094 467.2019348144531,419.78367614746094 467.2019348144531,417.2516326904297 467.4359436035156,416.61863708496094 637.451904296875,416.61863708496094 "/>
        <path id="svg_24" fill="#2f2e41" d="m250.66139,58.66684a8.55394,8.55394 0 0 0 -4.96126,1.1083c-1.476,1.0108 -2.40629,2.78162 -3.35588,4.42947a52.98576,52.98576 0 0 1 -14.43428,16.30464c-4.28894,3.142 -9.74169,7.05966 -9.00789,12.85269a17.37163,17.37163 0 0 0 2.09058,5.4255c3.9566,7.987 14.75357,14.15926 13.69156,23.27309c3.931,-6.58092 -1.327,-9.835 2.604,-16.41586c1.87205,-3.134 5.12412,-6.67168 7.95054,-4.70353c0.94637,0.659 1.56777,1.84095 2.55314,2.41917c2.35122,1.37972 4.85259,-1.258 6.93387,-3.12633c7.17685,-6.44263 17.383,-4.7548 26.31387,-2.74743c4.21624,0.94767 8.8473,2.191 11.33971,6.2207c3.277,5.29821 -3.11344,11.02034 -4.72807,17.01049a3.264,3.264 0 0 0 3.50293,4.06214c2.67975,-0.26434 5.8542,-0.481 6.01278,-1.65694c3.37154,0.12 7.50269,-0.26181 8.94728,-3.7725a14.76216,14.76216 0 0 0 0.69252,-4.29319c0.5302,-5.89718 3.0331,-11.27719 4.69119,-16.88993s2.37906,-12.1905 -0.41909,-17.1668a19.86362,19.86362 0 0 0 -3.666,-4.45557c-15.87901,-15.36675 -36.75642,-17.90092 -56.7515,-17.87811z"/>
        <path id="svg_25" fill="#ffb8b8" d="m238.13763,133.57189s3.4534,28.7784 -9.20909,31.08068s11.51136,41.4409 11.51136,41.4409l57.55681,6.90682l-13.81364,-46.04545s-9.20909,-3.45341 -3.4534,-26.47613s-42.59204,-6.90682 -42.59204,-6.90682z"/>
        <polygon id="svg_26" fill="#ffb8b8" points="203.02789306640625,627.9846649169922 207.63290405273438,691.2976531982422 231.805908203125,691.2976531982422 224.89990234375,627.9846649169922 203.02789306640625,627.9846649169922 "/>
        <polygon id="svg_27" fill="#ffb8b8" points="380.3029479980469,508.2666473388672 383.7559509277344,561.2186737060547 410.2329406738281,549.7076263427734 399.8719177246094,505.9646453857422 380.3029479980469,508.2666473388672 "/>
        <path id="svg_28" fill="#2f2e41" d="m185.76093,386.24629s1.15113,66.7659 8.058,88.63749s5.75568,23.02272 4.60455,26.47613s-2.30228,1.15114 -2.30228,6.90682s-2.30227,96.69544 0,104.7534s-6.90681,21.87159 0,23.02272s39.13863,0 40.28977,-6.90682s-9.20909,-9.20909 -4.60454,-13.81363s11.51136,-98.99772 11.51136,-98.99772l16.11591,-65.61476l29.92954,-34.53409l63.31244,0l19.56932,75.975s-8.058,21.87159 -2.30228,21.87159s40.28977,6.90682 40.28977,-18.41818s-11.51136,-100.14886 -13.81361,-102.45113s1.15113,-10.36023 -2.30228,-13.81364s-43.74317,-27.62727 -58.70794,-32.23181s-35.95778,-10.08487 -35.95778,-10.08487l-113.68995,49.2235z"/>
        <path id="svg_29" fill="#2f2e41" d="m410.23249,540.49854s-17.267,-5.75568 -25.325,11.51137s-4.60454,21.87159 -4.60454,21.87159s26.47613,9.20909 31.08068,4.60454c2.00333,-2.00334 8.36471,-2.69926 14.91273,-2.84621c9.97289,-0.22381 12.62625,-14.33323 3.20748,-17.61885q-0.42145,-0.147 -0.85317,-0.25539c-9.20909,-2.30227 -18.41818,-17.26705 -18.41818,-17.26705z"/>
        <circle id="svg_30" fill="#ffb8b8" r="34.53409" cy="118.03155" cx="264.03819"/>
        <path id="svg_31" fill="#e0fcff" d="m219.14388,179.04177s56.40567,11.51136 70.21931,-6.90682s19.56931,51.80113 19.56931,51.80113l6.90682,73.67272l-10.36023,40.28977s-54.1034,43.74318 -71.37044,47.19658s-43.74318,5.75569 -43.74318,5.75569s8.058,-127.77613 8.058,-130.0784s20.72041,-81.73067 20.72041,-81.73067z"/>
        <path id="svg_32" fill="#2f2e41" d="m236.29821,157.45259s-12.54979,-7.18923 -16.0032,-0.28241s-35.68522,24.17385 -39.13863,24.17385s6.90682,95.54431 2.30227,107.05567s-26.47613,95.54433 -13.81363,102.45114s3.45341,-6.90682 16.11591,10.36022s74.82385,17.267 78.27726,10.36023s-27.62727,-58.708 -21.87159,-107.05567s14.96477,-115.11362 6.90682,-124.32271s-12.77521,-22.74032 -12.77521,-22.74032z"/>
        <path id="svg_33" fill="#2f2e41" d="m277.85188,165.22813l1.60341,-5.518s47.89544,15.87824 50.19772,26.23847s1.15113,82.88181 -6.90682,88.63749s-19.56932,14.96477 -11.51136,28.7784s17.267,28.77841 24.17386,29.92954s19.56931,9.20909 16.1159,17.267s-44.89431,-6.90682 -44.89431,-6.90682s-27.62727,-20.72045 -26.47613,-52.95227s-2.30227,-125.47381 -2.30227,-125.47381z"/>
        <path id="svg_34" fill="#ffb8b8" d="m318.14159,301.06221l-27.62727,51.80113s-40.28976,41.4409 -17.267,46.04545s35.68522,-37.9875 35.68522,-37.9875l29.92955,-42.592l-20.7205,-17.26708z"/>
        <path id="svg_35" fill="#2f2e41" d="m252.34369,67.7026a7.83806,7.83806 0 0 0 -4.03868,0.78334a9.41322,9.41322 0 0 0 -2.73182,3.13072a39.77267,39.77267 0 0 1 -11.7501,11.524c-3.49138,2.22077 -7.93014,4.98972 -7.3328,9.0842a11.35949,11.35949 0 0 0 1.70182,3.8347a30.16344,30.16344 0 0 1 3.66519,18.80068l9.60011,-13.954c1.52393,-2.21507 4.17125,-4.7155 6.47207,-3.32442c0.77039,0.46577 1.27623,1.30117 2.07836,1.70985c1.914,0.97518 3.95021,-0.88912 5.64447,-2.20967c5.84225,-4.55361 14.15049,-3.36066 21.42059,-1.94187c3.43219,0.66981 7.20207,1.54859 9.231,4.39676c3.37169,4.73311 -0.149,11.5721 1.81882,17.04a5.02339,5.02339 0 0 0 2.07852,-3.31717c2.74457,0.08484 6.1075,-0.185 7.28345,-2.66638a9.18757,9.18757 0 0 0 0.56374,-3.03439c0.43161,-4.16809 2.46907,-7.97065 3.81883,-11.93769s1.93666,-8.61616 -0.34116,-12.13338a14.68107,14.68107 0 0 0 -2.98426,-3.14917c-12.92622,-10.8611 -29.92132,-12.65223 -46.19815,-12.63611z"/>
        <path id="svg_36" fill="#2f2e41" d="m318.14159,181.34403l10.72528,2.84686s24.95995,63.919 19.20427,107.66222s-9.20909,34.53409 -9.20909,34.53409s-9.20909,-20.72046 -29.92955,-16.11591l9.20909,-128.92726z"/>
        <path id="svg_37" fill="#2f2e41" d="m204.62282,682.93003c-2.77592,3.77228 -2.21935,9.16459 -4.67828,13.15075c-2.13144,3.45526 -6.14837,5.26695 -8.81439,8.32869a22.32616,22.32616 0 0 0 -2.26617,3.25987c-2.47311,4.14255 -4.4833,9.45174 -2.04761,13.61641c1.95936,3.35022 6.07786,4.65961 9.855,5.552c4.77407,1.128 9.73436,2.03071 14.56354,1.16876s9.54882,-3.819 11.27067,-8.41239a32.50011,32.50011 0 0 1 1.2051,-3.4007c2.61747,-5.15294 10.82749,-5.20864 13.50628,-10.33c1.87466,-3.584 0.15138,-7.91623 -1.57118,-11.57578l-5.26109,-11.1771c-1.74592,-3.70919 -8.82362,-1.57608 -12.51339,-2.46492c-4.81224,-1.15915 -9.78658,-2.43633 -13.24848,2.28441z"/>
        <path id="svg_38" fill="#ffb8b8" d="m166.19161,324.08493l48.34772,74.82386s29.92954,37.98749 39.13863,20.72045s-32.23181,-46.04545 -32.23181,-46.04545l-31.08068,-57.55676l-24.17386,8.0579z"/>
        <path id="svg_39" fill="#2f2e41" d="m190.36547,183.64631l-9.20909,-2.30228s-18.41818,5.75568 -23.02272,29.92954s-1.15114,120.86931 4.60454,122.02044s28.42725,-16.83663 32.05624,-13.02286s-7.88238,-15.75554 -4.429,-26.11577s0.00003,-110.50907 0.00003,-110.50907z"/>
        <g id="f3c2397c-d780-4cc6-97d8-1503d8277a2c">
            <rect fill="#e0fcff" height="7.1626" width="29.75235" y="235.02944" x="593.40685" id="ad41612f-86f7-46b2-a964-3a5da7bcf3cf"/>
            <rect fill="#e0fcff" height="7.1626" width="10.46842" y="235.02944" x="715.72208" id="b9a0b375-cc2a-4c59-8850-661af54e4f62"/>
            <rect fill="#e0fcff" height="7.1626" width="10.46842" y="235.02944" x="736.65892" id="e174c2ab-9bc5-41ec-b37c-b06fbf8a9878"/>
            <rect fill="#e0fcff" height="7.1626" width="71.07506" y="235.02944" x="633.62761" id="ba2479ac-4c7d-43b4-a028-73b1e20e4002"/>
            <rect fill="#e0fcff" height="7.1626" width="29.75235" y="281.31089" x="555.94092" id="ac60ef86-00f2-480b-8171-28b6fdfc1958"/>
            <rect fill="#e0fcff" height="7.1626" width="10.46842" y="281.31089" x="678.25614" id="b3d8298d-cd65-487a-8b19-4cee946356e7"/>
            <rect fill="#e0fcff" height="7.1626" width="10.46842" y="281.31089" x="699.19298" id="ed27f15f-f0c4-4569-8330-a6688f8e356c"/>
            <rect fill="#e0fcff" height="7.1626" width="71.07506" y="281.31089" x="596.16169" id="f685c005-adaf-4d60-acda-005b037d82a6"/>
            <rect fill="#e0fcff" height="7.1626" width="29.75235" y="251.00757" x="678.80711" id="eca7c7fc-83f8-48ca-a588-6606db47af3f"/>
            <rect fill="#e0fcff" height="7.1626" width="29.75235" y="251.00757" x="719.02788" id="a71b5b2f-f8b9-481d-a301-5e3357e5fe42"/>
            <rect fill="#e0fcff" height="7.1626" width="10.46842" y="251.00757" x="555.94092" id="abb3a25a-f854-41fc-8391-e6ad9fbe2417"/>
            <rect fill="#e0fcff" height="7.1626" width="10.46842" y="251.00757" x="576.87777" id="add2b425-b775-4eb5-9c25-8c4c14f957c9"/>
            <rect fill="#e0fcff" height="7.1626" width="71.07506" y="251.00757" x="597.81459" id="b7159612-3b84-4b0b-a885-612eaab04c06"/>
            <rect fill="#e0fcff" height="7.1626" width="29.75235" y="266.43471" x="617.09852" id="edfc7301-4de5-47dc-80e2-1ae2da982d6d"/>
            <rect fill="#e0fcff" height="7.1626" width="29.75235" y="266.43471" x="576.87776" id="e1009f91-6275-4375-80fa-0d778e331fdc"/>
            <rect fill="#e0fcff" height="7.1626" width="10.46842" y="266.43471" x="555.94093" id="a060fb9f-1f1a-4862-9a69-16dd49199e18"/>
            <rect fill="#e0fcff" height="7.1626" width="10.46842" y="266.43471" x="738.31182" id="b6754d5f-104f-449c-b9a9-cf9ac82bf5fe"/>
            <rect fill="#e0fcff" height="7.1626" width="71.07506" y="266.43471" x="656.76834" id="e6ed1ccd-2cfd-450f-a339-07df3a1ee6bb"/>
        </g>
    </g>
</svg>